<?xml version="1.0" standalone="no"?>
<!DOCTYPE svg PUBLIC "-//W3C//DTD SVG 20010904//EN"
 "http://www.w3.org/TR/2001/REC-SVG-20010904/DTD/svg10.dtd">
<svg version="1.0" xmlns="http://www.w3.org/2000/svg"
 width="37.000000pt" height="37.000000pt" viewBox="0 0 51.000000 51.000000"
 preserveAspectRatio="xMidYMid meet">

<g transform="translate(0.000000,51.000000) scale(0.100000,-0.100000)"
fill="#ffffff" stroke="none">
<path d="M170 490 c-72 -25 -133 -88 -154 -160 -20 -67 -20 -83 0 -151 30 -99
139 -179 245 -179 80 0 182 68 225 150 27 51 25 162 -3 216 -31 58 -93 110
-154 128 -67 20 -91 20 -159 -4z m175 -29 c114 -52 166 -187 116 -297 -24 -52
-37 -61 -45 -30 -3 13 -26 42 -50 63 l-44 39 19 23 c33 41 16 126 -30 151 -25
13 -87 13 -112 0 -48 -26 -62 -118 -24 -160 14 -16 13 -19 -20 -44 -19 -15
-44 -44 -54 -64 l-19 -36 -21 34 c-43 71 -41 163 5 237 56 90 183 128 279 84z
m-40 -83 c37 -32 37 -83 1 -115 -34 -28 -65 -29 -100 -2 -20 16 -26 29 -26 59
0 70 72 103 125 58z m25 -191 c40 -26 75 -81 66 -103 -9 -24 -86 -54 -141 -54
-55 0 -132 30 -141 54 -9 22 26 77 66 103 44 30 106 30 150 0z"/>
</g>
</svg>
